<svg aria-hidden="true" style="position:absolute;width:0;height:0;overflow:hidden" xmlns="http://www.w3.org/2000/svg">
  <defs>
    <symbol id="telegram" viewBox="0 0 32 32">
      <path d="M24.0701 0.00217485C23.7341 0.0177999 23.4177 0.115456 23.1365 0.224831H23.1326C22.8474 0.338112 21.492 0.908425 19.4334 1.77171C17.3748 2.63889 14.7029 3.76389 12.0506 4.88108C6.75368 7.11155 1.54665 9.30686 1.54665 9.30686L1.60915 9.28342C1.60915 9.28342 1.24977 9.40061 0.874772 9.65842C0.683366 9.78342 0.472428 9.9553 0.288835 10.2248C0.105241 10.4944 -0.0431968 10.9084 0.0114912 11.3342C0.101335 12.0569 0.570085 12.4905 0.906022 12.7287C1.24587 12.9709 1.57009 13.0842 1.57009 13.0842H1.5779L6.46071 14.7287C6.67946 15.4319 7.94899 19.6037 8.25368 20.5647C8.43337 21.1389 8.60915 21.4983 8.8279 21.7717C8.93337 21.9123 9.05837 22.0295 9.2068 22.1233C9.2654 22.1584 9.3279 22.1858 9.3904 22.2092C9.40993 22.2209 9.42946 22.2248 9.4529 22.2287L9.40212 22.217C9.41774 22.2209 9.42946 22.2326 9.44118 22.2365C9.48024 22.2483 9.50758 22.2522 9.55837 22.26C10.3318 22.4944 10.9529 22.0139 10.9529 22.0139L10.9881 21.9865L13.8709 19.3615L18.7029 23.0686L18.8123 23.1155C19.8201 23.5569 20.8396 23.3108 21.3787 22.8772C21.9216 22.4397 22.1326 21.8811 22.1326 21.8811L22.1677 21.7912L25.9021 2.66233C26.0076 2.18967 26.0349 1.74827 25.9177 1.31858C25.8006 0.888894 25.4998 0.48655 25.1365 0.271706C24.7693 0.0529559 24.406 -0.0134501 24.0701 0.00217485ZM23.9685 2.05296C23.9646 2.11546 23.9763 2.10764 23.949 2.22874V2.24046L20.2498 21.1701C20.2341 21.1975 20.2068 21.2561 20.1326 21.3147C20.0545 21.3772 19.992 21.4162 19.6677 21.2873L13.7576 16.7561L10.1873 20.01L10.9373 15.2209C10.9373 15.2209 20.1951 6.59202 20.5935 6.22092C20.992 5.84983 20.8591 5.77171 20.8591 5.77171C20.8865 5.31858 20.2576 5.63889 20.2576 5.63889L8.0818 13.1819L8.0779 13.1623L2.24196 11.1975V11.1936C2.23805 11.1936 2.23024 11.1897 2.22634 11.1897C2.23024 11.1897 2.25759 11.178 2.25759 11.178L2.28884 11.1623L2.32009 11.1506C2.32009 11.1506 7.53102 8.9553 12.8279 6.72483C15.4802 5.60764 18.1521 4.48264 20.2068 3.61546C22.2615 2.75217 23.781 2.11936 23.867 2.08421C23.949 2.05296 23.9099 2.05296 23.9685 2.05296Z" fill="#EAEAEA"/>
    </symbol>
    <symbol id="twitter" viewBox="0 0 32 32">
      <path d="M3.7887 3.84L13.1724 17.52L3.98745 28.16H6.02245L14.0712 18.83L20.4712 28.16H28.1599L18.3562 13.8687L27.0074 3.84H24.9787L17.4562 12.555L11.4774 3.84H3.7887ZM6.2187 5.12H10.8037L25.7299 26.88H21.1449L6.2187 5.12Z" fill="white"/>
    </symbol>
    <symbol id="whitepaper" viewBox="0 0 32 32">
     <g clip-path="url(#clip0_72_2806)">
<path d="M27.7229 4.03255L24.0042 0.296084C23.4927 -0.22331 22.4672 -0.0418806 21.7309 0.694776L18.3404 4.07253H6.69809V8.78254H1.98438V29.9996H18.4863V25.2866H23.1993V10.4026L27.3163 6.30023C28.0529 5.56659 28.2385 4.54629 27.7229 4.03255ZM14.5606 17.5696L9.41988 19.6521L8.31623 18.5428L10.416 13.4111L14.5606 17.5696ZM7.62409 4.99816H17.4121L13.6142 8.78442H7.62409V4.99816ZM2.90999 29.0717V9.71043H12.6826L9.69635 12.688L6.50384 20.4838C6.13683 21.3785 6.57437 21.816 7.46491 21.4585L15.2784 18.2923L17.5585 16.0209V29.0698H2.90999V29.0717ZM22.2733 24.3587H18.4863V15.1001L22.2733 11.3267V24.3587Z" fill="white"/>
</g>
<defs>
<clipPath id="clip0_72_2806">
<rect width="30" height="30" fill="white"/>
</clipPath>
</defs>
    </symbol>
    <symbol id="mail" viewBox="0 0 32 32">
     <path d="M0 4.25V5.3955V24.6045V25.75H30V24.6045V5.3955V4.25H0ZM18.3125 15.282L15.5895 18.018C15.2585 18.3255 14.7405 18.325 14.4235 18.031L11.687 15.282L11.711 15.2585L1.8235 5.25H28.183L18.2885 15.259L18.3125 15.282ZM10.262 15.2665L1 24.1775V5.9615L10.262 15.2665ZM10.967 15.975L13.7285 18.7495C14.083 19.08 14.538 19.246 14.995 19.246C15.4565 19.246 15.92 19.0765 16.2855 18.736L19.0335 15.975L28.152 24.75H1.843L10.967 15.975ZM19.7385 15.267L29 5.961V24.1775L19.7385 15.267Z" fill="white"/>
    </symbol>
   
  </defs>
</svg>

